<svg width="283" height="272" xmlns="http://www.w3.org/2000/svg" xmlns:xlink="http://www.w3.org/1999/xlink" overflow="hidden"><defs><clipPath id="clip0"><rect x="337" y="234" width="283" height="272"/></clipPath><clipPath id="clip1"><rect x="398" y="398" width="69" height="69"/></clipPath><clipPath id="clip2"><rect x="398" y="398" width="69" height="69"/></clipPath><clipPath id="clip3"><rect x="398" y="398" width="69" height="69"/></clipPath><clipPath id="clip4"><path d="M423.541 285.896 487.22 311.213 461.903 374.892 398.224 349.575Z" fill-rule="evenodd" clip-rule="evenodd"/></clipPath><clipPath id="clip5"><path d="M423.541 285.896 487.22 311.213 461.903 374.892 398.224 349.575Z" fill-rule="evenodd" clip-rule="evenodd"/></clipPath><clipPath id="clip6"><path d="M423.541 285.896 487.22 311.213 461.903 374.892 398.224 349.575Z" fill-rule="evenodd" clip-rule="evenodd"/></clipPath><clipPath id="clip7"><path d="M561.967 305.939 595.294 405.836 495.397 439.163 462.07 339.266Z" fill-rule="evenodd" clip-rule="evenodd"/></clipPath><clipPath id="clip8"><path d="M561.967 305.939 595.294 405.836 495.397 439.163 462.07 339.266Z" fill-rule="evenodd" clip-rule="evenodd"/></clipPath><clipPath id="clip9"><path d="M561.967 305.939 595.294 405.836 495.397 439.163 462.07 339.266Z" fill-rule="evenodd" clip-rule="evenodd"/></clipPath></defs><g clip-path="url(#clip0)" transform="translate(-337 -234)"><path d="M341 370C341 297.651 403.009 239 479.5 239 555.991 239 618 297.651 618 370 618 442.349 555.991 501 479.5 501 403.009 501 341 442.349 341 370Z" fill="#9E59AA" fill-rule="evenodd"/><g clip-path="url(#clip1)"><g clip-path="url(#clip2)"><g clip-path="url(#clip3)"><path d="M449.044 427.195 436.227 440.012C435.211 441.028 433.66 441.124 432.763 440.227 431.866 439.33 431.963 437.779 432.978 436.764L447.674 422.016C448.69 421.001 448.362 422.834 449.259 423.731 450.156 424.629 450.06 426.179 449.044 427.195Z" fill="#FFFFFF"/><path d="M421.016 401.921C421.015 401.923 421.013 401.924 421.012 401.926L406.863 415.984C405.963 416.879 404.509 416.875 403.614 415.975 402.722 415.077 401.313 414.877 402.208 413.982 402.209 413.98 402.632 413.747 402.633 413.746L417.772 398.668C418.672 397.774 420.126 397.778 421.021 398.677 421.914 399.575 421.911 401.026 421.016 401.921Z" fill="#FFFFFF"/><path d="M427.683 409.598C427.681 409.599 427.68 409.601 427.678 409.602L419.59 417.6C418.69 418.495 417.236 418.491 416.341 417.591 415.448 416.693 415.451 415.242 416.346 414.347 416.347 414.346 416.349 414.344 416.35 414.343L424.439 406.345C425.338 405.45 426.793 405.454 427.687 406.354 428.58 407.252 428.578 408.703 427.683 409.598Z" fill="#FFFFFF"/><path d="M466.314 446.884 451.875 461.323C450.978 462.22 449.524 462.22 448.627 461.323 447.73 460.426 447.73 458.971 448.627 458.074L463.065 443.636C463.962 442.739 465.417 442.739 466.314 443.636 467.211 444.533 467.211 445.987 466.314 446.884Z" fill="#FFFFFF"/><path d="M458.536 441.127 451.168 448.495C450.271 449.392 448.817 449.392 447.92 448.495 447.023 447.598 447.023 446.143 447.92 445.246L455.288 437.878C456.185 436.981 457.639 436.981 458.536 437.878 459.433 438.775 459.433 440.23 458.536 441.127Z" fill="#FFFFFF"/><path d="M443.42 417.48 428.574 432.36C427.559 433.376 426.008 433.472 425.111 432.575 424.214 431.678 424.31 430.127 425.326 429.111L438.143 416.294C439.159 415.279 440.709 415.182 441.606 416.079 442.503 416.976 444.436 416.464 443.42 417.48Z" fill="#FFFFFF"/><path d="M466.314 446.884 451.876 461.323C450.979 462.22 449.524 462.22 448.627 461.323 447.859 460.554 447.748 459.377 448.298 458.491 449.199 459.303 450.591 459.275 451.459 458.408L465.898 443.969C466.025 443.841 466.136 443.701 466.227 443.552 466.257 443.58 466.285 443.607 466.314 443.636 467.211 444.533 467.211 445.988 466.314 446.884Z" fill="#FFFFFF"/><path d="M458.537 441.127 451.169 448.495C450.272 449.392 448.817 449.392 447.92 448.495 447.151 447.726 447.041 446.549 447.591 445.663 448.492 446.475 449.885 446.447 450.752 445.579L458.12 438.212C458.249 438.082 458.359 437.944 458.449 437.795 458.48 437.823 458.508 437.849 458.537 437.878 459.434 438.775 459.434 440.23 458.537 441.127Z" fill="#FFFFFF"/><path d="M421.016 401.921C421.014 401.922 421.013 401.925 421.012 401.926L406.863 415.984C405.963 416.879 404.508 416.874 403.614 415.975 402.722 415.076 401.313 414.877 402.208 413.982 402.209 413.981 402.631 413.748 402.633 413.745 402.636 413.746 402.64 413.751 402.643 413.753 403.537 414.653 404.992 414.657 405.891 413.763L420.04 399.705C420.041 399.703 420.043 399.701 420.044 399.699 420.408 399.336 420.626 398.879 420.694 398.405 420.809 398.483 420.919 398.575 421.021 398.677 421.914 399.576 421.911 401.027 421.016 401.921Z" fill="#FFFFFF"/><path d="M427.682 409.598C427.681 409.599 427.68 409.601 427.678 409.602L419.59 417.6C418.69 418.495 417.235 418.49 416.341 417.591 415.812 417.059 415.597 416.332 415.697 415.642 416.59 416.258 417.821 416.17 418.618 415.379L426.707 407.381C426.708 407.38 426.709 407.378 426.711 407.377 427.074 407.013 427.292 406.555 427.36 406.081 427.476 406.161 427.585 406.251 427.687 406.354 428.581 407.252 428.578 408.703 427.682 409.598Z" fill="#FFFFFF"/><path d="M449.259 423.731C448.362 422.834 448.689 421 447.674 422.017L446.848 422.846 444.522 425.181C444.871 425.814 445.17 426.486 445.417 427.193 445.486 427.392 445.432 427.613 445.283 427.763L433.866 439.179C433.476 439.571 433.005 439.826 432.524 439.939 432.594 440.041 432.674 440.137 432.764 440.227 433.661 441.124 435.211 441.029 436.226 440.012L449.043 427.195C450.06 426.179 450.155 424.628 449.259 423.731Z" fill="#FFFFFF"/><path d="M441.593 416.066C441.078 415.554 440.305 415.371 439.603 415.511 439.603 415.511 439.603 415.511 439.604 415.512 438.368 415.587 436.256 418.333 435.371 419.067 436.065 419.254 438.053 419.252 437.339 420.376 436.609 420.869 425.697 432.654 424.871 432.286 425.695 433.478 427.462 433.477 428.574 432.36 428.574 432.36 443.42 417.48 443.42 417.48 444.442 416.458 442.484 416.981 441.593 416.066Z" fill="#FFFFFF"/><path d="M453.247 466.327C452.338 467.236 450.85 467.223 449.923 466.296 443.328 459.701 445.908 446.599 448.034 439.377 448.557 437.599 448.878 435.844 448.988 434.162L449 433.97C449.351 428.582 447.761 423.832 444.525 420.595 441.289 417.359 436.54 415.77 431.152 416.12 429.35 416.237 427.507 416.565 425.677 417.096 418.452 419.19 405.342 421.715 398.717 415.09 397.791 414.164 397.777 412.676 398.687 411.766 399.596 410.857 401.084 410.87 402.01 411.797 407.22 417.006 420.382 413.713 424.292 412.579 426.446 411.955 428.623 411.568 430.762 411.429 437.534 410.989 443.592 413.075 447.819 417.302 452.046 421.53 454.131 427.588 453.691 434.361L453.678 434.553C453.547 436.578 453.165 438.673 452.545 440.78 451.396 444.686 448.047 457.833 453.217 463.003 454.143 463.929 454.156 465.417 453.247 466.327Z" fill="#FFFFFF"/></g></g></g><g clip-path="url(#clip4)"><g clip-path="url(#clip5)"><g clip-path="url(#clip6)"><path d="M459.937 331.568 443.405 338.694C442.095 339.259 440.629 338.779 440.13 337.622 439.631 336.465 440.289 335.069 441.599 334.504L460.573 326.286C461.883 325.722 460.907 327.294 461.406 328.451 461.905 329.608 461.247 331.004 459.937 331.568Z" fill="#FFFFFF"/><path d="M443.344 297.96C443.342 297.961 443.34 297.961 443.338 297.962L425.122 305.745C423.964 306.241 422.623 305.703 422.127 304.545 421.633 303.389 420.407 302.687 421.561 302.189 421.563 302.189 422.038 302.128 422.04 302.128L441.544 293.768C442.702 293.272 444.043 293.809 444.538 294.968 445.033 296.124 444.498 297.462 443.344 297.96Z" fill="#FFFFFF"/><path d="M446.68 307.49C446.678 307.491 446.676 307.492 446.674 307.493L436.274 311.906C435.116 312.402 433.775 311.864 433.28 310.706 432.785 309.55 433.32 308.212 434.474 307.714 434.476 307.713 434.478 307.712 434.48 307.711L444.879 303.298C446.038 302.802 447.378 303.34 447.874 304.498 448.368 305.654 447.834 306.993 446.68 307.49Z" fill="#FFFFFF"/><path d="M468.651 356.075 450.028 364.103C448.871 364.602 447.529 364.068 447.03 362.911 446.532 361.754 447.065 360.412 448.222 359.913L466.845 351.886C468.002 351.387 469.344 351.921 469.843 353.078 470.341 354.234 469.808 355.577 468.651 356.075Z" fill="#FFFFFF"/><path d="M463.586 347.908 454.082 352.005C452.926 352.504 451.583 351.97 451.085 350.813 450.586 349.656 451.119 348.314 452.276 347.815L461.78 343.719C462.937 343.22 464.279 343.754 464.778 344.91 465.276 346.067 464.743 347.41 463.586 347.908Z" fill="#FFFFFF"/><path d="M458.312 320.539 439.151 328.824C437.841 329.389 436.374 328.909 435.876 327.752 435.377 326.595 436.035 325.199 437.345 324.634L453.876 317.509C455.186 316.944 456.652 317.424 457.151 318.581 457.65 319.738 459.622 319.974 458.312 320.539Z" fill="#FFFFFF"/><path d="M468.651 356.076 450.028 364.103C448.871 364.602 447.529 364.068 447.03 362.911 446.604 361.92 446.933 360.793 447.765 360.177 448.299 361.257 449.594 361.742 450.713 361.26L469.336 353.232C469.501 353.161 469.655 353.073 469.793 352.969 469.811 353.006 469.827 353.04 469.843 353.078 470.342 354.234 469.808 355.577 468.651 356.076Z" fill="#FFFFFF"/><path d="M463.586 347.909 454.083 352.005C452.926 352.504 451.583 351.97 451.085 350.813 450.657 349.821 450.988 348.694 451.82 348.079 452.354 349.159 453.649 349.644 454.768 349.162L464.271 345.065C464.438 344.994 464.59 344.906 464.728 344.802 464.746 344.839 464.762 344.873 464.778 344.911 465.276 346.067 464.743 347.41 463.586 347.909Z" fill="#FFFFFF"/><path d="M443.343 297.959C443.342 297.96 443.339 297.962 443.338 297.963L425.122 305.746C423.964 306.241 422.623 305.703 422.128 304.545 421.633 303.388 420.406 302.687 421.561 302.19 421.562 302.189 422.037 302.129 422.04 302.127 422.042 302.129 422.044 302.134 422.046 302.138 422.541 303.296 423.882 303.834 425.04 303.339L443.256 295.556C443.258 295.555 443.26 295.553 443.262 295.553 443.731 295.35 444.1 295.009 444.336 294.597 444.414 294.711 444.481 294.836 444.539 294.968 445.033 296.125 444.498 297.463 443.343 297.959Z" fill="#FFFFFF"/><path d="M446.679 307.491C446.677 307.491 446.676 307.492 446.674 307.493L436.275 311.907C435.116 312.402 433.775 311.864 433.28 310.706 432.987 310.021 433.055 309.271 433.401 308.67 433.998 309.567 435.167 309.938 436.193 309.5L446.592 305.086C446.594 305.086 446.596 305.085 446.597 305.084 447.066 304.882 447.436 304.539 447.672 304.127 447.75 304.242 447.818 304.366 447.873 304.498 448.369 305.655 447.834 306.993 446.679 307.491Z" fill="#FFFFFF"/><path d="M461.406 328.45C460.907 327.294 461.882 325.721 460.573 326.287L459.506 326.749 456.502 328.05C456.593 328.762 456.622 329.492 456.59 330.235 456.581 330.445 456.45 330.629 456.258 330.712L441.532 337.059C441.029 337.278 440.501 337.341 440.015 337.268 440.042 337.388 440.08 337.506 440.13 337.622 440.629 338.779 442.095 339.26 443.405 338.694L459.936 331.568C461.247 331.003 461.904 329.607 461.406 328.45Z" fill="#FFFFFF"/><path d="M457.144 318.563C456.857 317.903 456.21 317.45 455.51 317.321 455.511 317.322 455.511 317.322 455.511 317.322 454.344 316.938 451.386 318.697 450.301 319.05 450.872 319.478 452.708 320.205 451.636 320.981 450.782 321.168 436.388 328.04 435.76 327.397 436.083 328.8 437.714 329.447 439.15 328.824 439.15 328.824 458.312 320.539 458.312 320.539 459.629 319.971 457.631 319.735 457.144 318.563Z" fill="#FFFFFF"/><path d="M449.458 369.224C448.285 369.73 446.917 369.171 446.402 367.977 442.735 359.47 449.923 348.326 454.535 342.44 455.67 340.991 456.61 339.49 457.329 337.977L457.411 337.804C459.711 332.961 459.987 327.994 458.188 323.82 456.389 319.646 452.589 316.436 447.488 314.782 445.782 314.229 443.961 313.856 442.077 313.674 434.641 312.956 421.616 310.476 417.932 301.931 417.417 300.737 417.951 299.358 419.124 298.853 420.297 298.347 421.665 298.905 422.18 300.1 425.076 306.819 438.432 308.609 442.457 308.998 444.673 309.212 446.824 309.653 448.85 310.31 455.261 312.389 460.086 316.537 462.436 321.989 464.786 327.442 464.488 333.798 461.596 339.886L461.514 340.059C460.649 341.88 459.529 343.673 458.184 345.39 455.69 348.573 447.775 359.478 450.65 366.146 451.165 367.34 450.631 368.719 449.458 369.224Z" fill="#FFFFFF"/></g></g></g><g clip-path="url(#clip7)"><g clip-path="url(#clip8)"><g clip-path="url(#clip9)"><path d="M544.353 393.941 519.606 381.575C517.645 380.595 516.757 378.396 517.622 376.664 518.487 374.932 520.779 374.323 522.74 375.303L551.189 389.456C553.151 390.437 550.337 390.847 549.472 392.579 548.606 394.311 546.314 394.921 544.353 393.941Z" fill="#FFFFFF"/><path d="M567.408 341.155C567.405 341.154 567.402 341.152 567.398 341.151L540.211 327.456C538.481 326.586 537.785 324.479 538.655 322.749 539.524 321.023 539.134 318.887 540.861 319.75 540.864 319.751 541.406 320.25 541.409 320.252L570.55 334.888C572.28 335.758 572.976 337.866 572.106 339.595 571.237 341.322 569.135 342.019 567.408 341.155Z" fill="#FFFFFF"/><path d="M559.513 354.515C559.51 354.513 559.507 354.512 559.504 354.51L544.018 346.663C542.288 345.792 541.592 343.685 542.462 341.955 543.331 340.229 545.433 339.532 547.161 340.395 547.164 340.396 547.167 340.398 547.17 340.399L562.656 348.247C564.385 349.117 565.082 351.225 564.212 352.954 563.343 354.681 561.241 355.378 559.513 354.515Z" fill="#FFFFFF"/><path d="M524.189 428.454 496.311 414.524C494.579 413.658 493.877 411.553 494.742 409.821 495.608 408.089 497.713 407.386 499.445 408.252L527.323 422.182C529.055 423.047 529.757 425.153 528.892 426.885 528.027 428.617 525.921 429.319 524.189 428.454Z" fill="#FFFFFF"/><path d="M528.768 414.413 514.542 407.304C512.81 406.439 512.107 404.333 512.973 402.601 513.838 400.87 515.944 400.167 517.676 401.032L531.902 408.141C533.634 409.006 534.336 411.112 533.471 412.844 532.606 414.576 530.5 415.279 528.768 414.413Z" fill="#FFFFFF"/><path d="M555.703 381.107 526.989 366.8C525.028 365.82 524.139 363.621 525.005 361.889 525.87 360.157 528.162 359.548 530.123 360.528L554.87 372.893C556.831 373.873 557.719 376.072 556.854 377.804 555.989 379.536 557.665 382.087 555.703 381.107Z" fill="#FFFFFF"/><path d="M524.188 428.455 496.31 414.524C494.579 413.659 493.876 411.552 494.741 409.821 495.484 408.338 497.135 407.608 498.683 407.977 497.942 409.673 498.655 411.676 500.33 412.513L528.208 426.443C528.455 426.567 528.712 426.66 528.97 426.719 528.945 426.776 528.92 426.829 528.892 426.885 528.027 428.617 525.92 429.32 524.188 428.455Z" fill="#FFFFFF"/><path d="M528.768 414.414 514.542 407.305C512.81 406.44 512.107 404.333 512.973 402.602 513.715 401.117 515.366 400.389 516.914 400.757 516.173 402.454 516.886 404.457 518.562 405.294L532.787 412.402C533.037 412.527 533.291 412.619 533.549 412.678 533.524 412.735 533.499 412.788 533.471 412.845 532.606 414.576 530.499 415.279 528.768 414.414Z" fill="#FFFFFF"/><path d="M567.408 341.154C567.405 341.153 567.4 341.152 567.398 341.151L540.211 327.457C538.482 326.586 537.785 324.478 538.656 322.749 539.525 321.022 539.134 318.886 540.861 319.75 540.863 319.752 541.405 320.25 541.41 320.251 541.409 320.255 541.405 320.264 541.402 320.269 540.531 321.998 541.228 324.106 542.957 324.977L570.144 338.671C570.147 338.672 570.152 338.673 570.154 338.674 570.857 339.025 571.623 339.12 572.342 338.99 572.285 339.194 572.205 339.397 572.106 339.596 571.237 341.322 569.135 342.019 567.408 341.154Z" fill="#FFFFFF"/><path d="M559.512 354.515C559.51 354.513 559.507 354.512 559.504 354.511L544.018 346.663C542.289 345.793 541.592 343.684 542.463 341.955 542.977 340.933 543.927 340.27 544.974 340.081 544.513 341.671 545.234 343.412 546.765 344.183L562.251 352.031C562.254 352.032 562.256 352.033 562.259 352.035 562.961 352.386 563.73 352.48 564.448 352.35 564.389 352.555 564.312 352.757 564.212 352.953 563.343 354.682 561.241 355.379 559.512 354.515Z" fill="#FFFFFF"/><path d="M549.472 392.579C550.337 390.847 553.15 390.435 551.189 389.457L549.59 388.661 545.085 386.42C544.338 387.233 543.509 387.99 542.605 388.689 542.35 388.885 542.003 388.913 541.715 388.77L519.672 377.755C518.916 377.379 518.319 376.821 517.924 376.178 517.809 376.33 517.709 376.491 517.622 376.665 516.756 378.397 517.644 380.596 519.606 381.574L544.353 393.94C546.315 394.921 548.606 394.31 549.472 392.579Z" fill="#FFFFFF"/><path d="M556.868 377.778C557.359 376.786 557.25 375.578 556.709 374.628 556.709 374.629 556.709 374.63 556.709 374.63 556.004 372.878 551.008 371.145 549.518 370.219 549.581 371.314 550.545 374.192 548.572 373.701 547.505 372.883 525.173 362.776 525.307 361.402 523.979 363.171 524.834 365.728 526.989 366.799 526.989 366.799 555.703 381.107 555.703 381.107 557.675 382.092 555.973 379.51 556.868 377.778Z" fill="#FFFFFF"/><path d="M489.729 418.927C487.973 418.049 487.274 415.888 488.167 414.1 494.531 401.365 514.745 398.773 526.228 398.363 529.055 398.261 531.75 397.878 534.239 397.224L534.524 397.15C542.494 395.055 548.603 390.46 551.725 384.211 554.848 377.963 554.856 370.319 551.747 362.688 550.706 360.135 549.341 357.626 547.688 355.233 541.166 345.783 531.179 328.022 537.571 315.231 538.465 313.443 540.613 312.704 542.369 313.581 544.125 314.459 544.824 316.62 543.93 318.408 538.904 328.467 550.029 345.933 553.559 351.046 555.503 353.862 557.115 356.827 558.349 359.857 562.257 369.45 562.163 379.227 558.084 387.389 554.005 395.551 546.241 401.496 536.224 404.129L535.939 404.204C532.943 404.992 529.726 405.452 526.376 405.572 520.166 405.794 499.514 407.295 494.526 417.278 493.633 419.066 491.485 419.804 489.729 418.927Z" fill="#FFFFFF"/></g></g></g><path d="M341 370C341 297.651 402.561 239 478.5 239 554.439 239 616 297.651 616 370 616 442.349 554.439 501 478.5 501 402.561 501 341 442.349 341 370Z" stroke="#FF9900" stroke-width="8" stroke-linejoin="round" stroke-miterlimit="10" fill="none" fill-rule="evenodd"/></g></svg>